<?xml version="1.0" standalone="no"?>
<!DOCTYPE svg PUBLIC "-//W3C//DTD SVG 20010904//EN"
 "http://www.w3.org/TR/2001/REC-SVG-20010904/DTD/svg10.dtd">
<svg version="1.0" xmlns="http://www.w3.org/2000/svg"
 width="764.000000pt" height="713.000000pt" viewBox="0 0 764.000000 713.000000"
 preserveAspectRatio="xMidYMid meet">

<g transform="translate(0.000000,713.000000) scale(0.100000,-0.100000)"
fill="#00c2fe" stroke="none">
<path d="M3870 5706 c-1922 -738 -3515 -1353 -3539 -1365 -70 -36 -144 -113
-180 -186 -65 -135 -75 -259 -31 -379 23 -61 101 -171 151 -213 16 -14 206
-152 422 -307 216 -155 555 -402 755 -549 200 -147 370 -267 377 -267 8 0 16
4 20 10 3 5 169 137 368 294 199 157 538 424 753 593 215 169 404 318 420 330
16 12 40 31 54 42 14 11 106 84 205 162 155 123 314 249 460 364 21 17 693
547 1494 1178 801 632 1464 1153 1473 1158 10 5 19 5 22 0 3 -5 -715 -721
-1597 -1592 -3335 -3296 -3040 -3001 -3020 -3019 47 -44 2093 -1526 2136
-1547 76 -39 142 -53 248 -53 147 0 245 37 342 129 78 74 128 161 190 331 57
159 211 580 707 1935 156 424 299 817 320 875 21 58 60 166 88 240 28 74 240
655 472 1290 232 635 444 1214 470 1285 142 385 140 379 140 440 0 76 -25 119
-83 145 -91 42 140 126 -3637 -1324z"/>
<path d="M1454 2042 c3 -9 77 -388 156 -842 83 -454 156 -841 162 -860 30
-104 100 -187 198 -237 50 -25 65 -28 155 -28 112 0 103 -3 277 102 233 141
551 358 833 569 l27 20 -906 647 c-499 356 -905 639 -902 629z"/>
</g>
</svg>
